<svg enable-background="new 0 0 128 128" viewBox="0 0 128 128" xmlns="http://www.w3.org/2000/svg" xmlns:xlink="http://www.w3.org/1999/xlink"><linearGradient id="a" gradientUnits="userSpaceOnUse" x1="64" x2="64" y1="122.93" y2="54.9739"><stop offset=".005361101" stop-color="#ffa000"/><stop offset="1" stop-color="#ffc107"/></linearGradient><path d="m97.5 74.3h-3-8.5-3v-46c0-5.4-4.4-9.7-9.7-9.7h-18.8c-5.3 0-9.6 4.3-9.6 9.6v10.6c0 2-1.6 3.6-3.6 3.6h-7.2c-1 0-1.9-.4-2.6-1.1-.2-.2-.3-.3-.4-.5-.1-.1-.2-.3-.3-.5s-.1-.3-.2-.5c0-.1-.1-.3-.1-.4v-.1c0-.1 0-.2 0-.3v-.1-.1-10.6c0-1.7.2-3.3.5-4.9.2-.8.4-1.6.6-2.3.1-.3.2-.6.3-.8.1-.4.3-.7.4-1s.3-.7.4-1c.3-.7.6-1.3 1-2 .3-.5.6-1 .9-1.5.7-1 1.4-1.9 2.2-2.8 4.4-4.9 10.8-8 17.9-8h18.8c6.6 0 12.6 2.7 16.9 7 .3.3.5.6.8.8.5.5.9 1.1 1.4 1.7.4.6.8 1.2 1.2 1.8.2.3.4.6.6.9s.4.7.6 1.1c.1.2.2.5.4.8 0 .1.1.1.1.2.1.3.3.6.4.9s.3.7.4 1c.1.4.2.7.3 1.1s.2.7.3 1.1.2.7.2 1.1c.1.4.1.7.2 1.1v.1.3.1c0 .2.1.5.1.7.1.8.1 1.5.1 2.3z" fill="#bdbdbd"/><path d="m97.4 25.6c0-.2 0-.5-.1-.7v-.1c0-.1 0-.2 0-.4-.1-.4-.1-.7-.2-1.1s-.2-.7-.2-1.1c-.1-.4-.2-.7-.3-1.1s-.2-.7-.3-1.1-.2-.7-.4-1c-.1-.3-.2-.6-.4-.9-.1-.3-.3-.6-.5-1s-.4-.7-.6-1.1c-.2-.3-.4-.6-.6-.9-.4-.6-.8-1.2-1.2-1.8s-.9-1.1-1.4-1.7c-.3-.3-.5-.6-.8-.8-4.3-4.3-10.3-7-16.9-7h-18.8c-7.1 0-13.5 3.1-17.9 8-.8.9-1.5 1.8-2.2 2.8-.3.5-.6 1-.9 1.5-.4.6-.7 1.3-1 2-.2.3-.3.7-.4 1s-.3.7-.4 1-.2.6-.3.8c-.2.8-.4 1.5-.6 2.3-.3 1.6-.5 3.2-.5 4.9v10.7c0 .2 0 .3.1.5 0 .2.1.3.1.4 0 .2.1.3.2.5s.2.3.3.5.3.4.5.5c.7.7 1.6 1.1 2.6 1.1h7.2c2 0 3.6-1.6 3.6-3.6v-10.6c0-5.3 4.3-9.6 9.6-9.6h18.7c5.4 0 9.7 4.4 9.7 9.7v46h3v-46c0-7-5.7-12.7-12.7-12.7h-18.9c-6.9 0-12.6 5.6-12.6 12.6v10.7c0 .3-.3.6-.6.6h-7.2c-.3 0-.6-.3-.6-.6v-10.6c0-11.7 9.5-21.2 21.2-21.2h18.8c11.5 0 21 9.4 21 21v46.1.2h3v-46.4c0-.7 0-1.5-.1-2.3z" fill="#424242" opacity=".2"/><path d="m100.1 124h-72.2c-4 0-7.3-3.3-7.3-7.3v-54.7c0-4 3.3-7.3 7.3-7.3h72.2c4 0 7.3 3.3 7.3 7.3v54.6c0 4.1-3.2 7.4-7.3 7.4z" fill="url(#a)"/><path d="m100.1 57.7c2.4 0 4.3 1.9 4.3 4.3v54.6c0 2.4-1.9 4.3-4.3 4.3h-72.2c-2.4 0-4.3-1.9-4.3-4.3v-54.6c0-2.4 1.9-4.3 4.3-4.3zm0-3h-72.2c-4 0-7.3 3.3-7.3 7.3v54.6c0 4 3.3 7.3 7.3 7.3h72.2c4 0 7.3-3.3 7.3-7.3v-54.6c0-4-3.2-7.3-7.3-7.3z" fill="#424242" opacity=".2"/></svg>